<svg width="565" height="996" viewBox="0 0 565 996" fill="none" xmlns="http://www.w3.org/2000/svg">
<g filter="url(#filter0_d_1508_10459)">
<rect x="64" y="41" width="397" height="834" rx="51" stroke="#AFAFAF" stroke-width="22"/>
<path d="M472 225H473.5C474.328 225 475 225.672 475 226.5V319.5C475 320.328 474.328 321 473.5 321H472V225Z" fill="#AFAFAF"/>
<path d="M53 206H51.5C50.6716 206 50 206.672 50 207.5V262.5C50 263.328 50.6716 264 51.5 264H53V206Z" fill="#AFAFAF"/>
<path d="M53 283H51.5C50.6716 283 50 283.672 50 284.5V339.5C50 340.328 50.6716 341 51.5 341H53V283Z" fill="#AFAFAF"/>
<path d="M53 145H51.5C50.6716 145 50 145.672 50 146.5V172.5C50 173.328 50.6716 174 51.5 174H53V145Z" fill="#AFAFAF"/>
<g clip-path="url(#clip0_1508_10459)">
<rect x="76" y="52" width="375" height="812" rx="40" fill="#1E1E20"/>
<g clip-path="url(#clip1_1508_10459)">
<rect width="375" height="812" transform="translate(76 52)" fill="#1E1E20"/>
<g clip-path="url(#clip2_1508_10459)">
<rect width="375" height="812" transform="translate(76 52)" fill="black"/>
<path opacity="0.35" d="M414.667 69.8333H431.333C432.53 69.8333 433.5 70.8033 433.5 71.9999V77.9999C433.5 79.1965 432.53 80.1666 431.333 80.1666H414.667C413.47 80.1666 412.5 79.1965 412.5 77.9999V71.9999C412.5 70.8033 413.47 69.8333 414.667 69.8333Z" stroke="black"/>
<path opacity="0.4" d="M435 73V77C435.805 76.6612 436.328 75.8731 436.328 75C436.328 74.1269 435.805 73.3388 435 73" fill="black"/>
<path d="M414 72.6666C414 71.9302 414.597 71.3333 415.333 71.3333H430.667C431.403 71.3333 432 71.9302 432 72.6666V77.3333C432 78.0696 431.403 78.6666 430.667 78.6666H415.333C414.597 78.6666 414 78.0696 414 77.3333V72.6666Z" fill="black"/>
<path fill-rule="evenodd" clip-rule="evenodd" d="M399.33 71.6079C401.546 71.608 403.677 72.4594 405.283 73.9862C405.404 74.1041 405.598 74.1026 405.717 73.9829L406.873 72.8162C406.933 72.7555 406.967 72.6733 406.966 72.5877C406.966 72.5021 406.931 72.4202 406.87 72.3602C402.655 68.3207 396.005 68.3207 391.79 72.3602C391.729 72.4202 391.694 72.502 391.694 72.5876C391.693 72.6732 391.727 72.7555 391.787 72.8162L392.943 73.9829C393.062 74.1028 393.256 74.1043 393.377 73.9862C394.983 72.4593 397.114 71.6079 399.33 71.6079ZM399.33 75.4036C400.548 75.4035 401.722 75.856 402.624 76.6732C402.746 76.7892 402.939 76.7867 403.058 76.6676L404.212 75.5009C404.273 75.4397 404.307 75.3567 404.306 75.2704C404.305 75.1842 404.27 75.1018 404.208 75.0419C401.459 72.4855 397.204 72.4855 394.455 75.0419C394.393 75.1018 394.358 75.1842 394.357 75.2705C394.356 75.3568 394.39 75.4398 394.451 75.5009L395.605 76.6676C395.724 76.7867 395.917 76.7892 396.039 76.6732C396.941 75.8566 398.114 75.4041 399.33 75.4036ZM401.643 77.9574C401.645 78.0439 401.611 78.1273 401.549 78.1879L399.552 80.2036C399.493 80.2628 399.414 80.2961 399.33 80.2961C399.247 80.2961 399.167 80.2628 399.109 80.2036L397.111 78.1879C397.049 78.1272 397.015 78.0438 397.017 77.9573C397.019 77.8708 397.056 77.7889 397.121 77.7309C398.396 76.652 400.264 76.652 401.54 77.7309C401.604 77.7889 401.642 77.8709 401.643 77.9574Z" fill="black"/>
<path fill-rule="evenodd" clip-rule="evenodd" d="M385.667 69.6665H384.667C384.114 69.6665 383.667 70.1142 383.667 70.6665V79.3332C383.667 79.8855 384.114 80.3332 384.667 80.3332H385.667C386.219 80.3332 386.667 79.8855 386.667 79.3332V70.6665C386.667 70.1142 386.219 69.6665 385.667 69.6665ZM380 71.9998H381C381.552 71.9998 382 72.4476 382 72.9998V79.3332C382 79.8855 381.552 80.3332 381 80.3332H380C379.448 80.3332 379 79.8855 379 79.3332V72.9998C379 72.4476 379.448 71.9998 380 71.9998ZM376.333 74.3332H375.333C374.781 74.3332 374.333 74.7809 374.333 75.3332V79.3332C374.333 79.8855 374.781 80.3332 375.333 80.3332H376.333C376.886 80.3332 377.333 79.8855 377.333 79.3332V75.3332C377.333 74.7809 376.886 74.3332 376.333 74.3332ZM371.667 76.3332H370.667C370.114 76.3332 369.667 76.7809 369.667 77.3332V79.3332C369.667 79.8855 370.114 80.3332 370.667 80.3332H371.667C372.219 80.3332 372.667 79.8855 372.667 79.3332V77.3332C372.667 76.7809 372.219 76.3332 371.667 76.3332Z" fill="black"/>
<path d="M113.321 80.2563C116.009 80.2563 117.605 78.1543 117.605 74.5947C117.605 73.2544 117.349 72.1265 116.858 71.2549C116.148 69.8999 114.925 69.1675 113.379 69.1675C111.079 69.1675 109.454 70.7129 109.454 72.8809C109.454 74.917 110.918 76.3965 112.933 76.3965C114.17 76.3965 115.174 75.8179 115.672 74.8145H115.694C115.694 74.8145 115.723 74.8145 115.73 74.8145C115.745 74.8145 115.796 74.8145 115.796 74.8145C115.796 77.2314 114.881 78.6743 113.335 78.6743C112.427 78.6743 111.724 78.1763 111.482 77.3779H109.6C109.915 79.1138 111.387 80.2563 113.321 80.2563ZM113.387 74.895C112.171 74.895 111.307 74.0308 111.307 72.8223C111.307 71.6431 112.215 70.7422 113.394 70.7422C114.573 70.7422 115.481 71.6577 115.481 72.8516C115.481 74.0308 114.595 74.895 113.387 74.895Z" fill="black"/>
<path d="M120.696 80.1538C121.392 80.1538 121.868 79.6558 121.868 78.9966C121.868 78.3301 121.392 77.8394 120.696 77.8394C120.008 77.8394 119.525 78.3301 119.525 78.9966C119.525 79.6558 120.008 80.1538 120.696 80.1538ZM120.696 74.6606C121.392 74.6606 121.868 74.1699 121.868 73.5107C121.868 72.8442 121.392 72.3535 120.696 72.3535C120.008 72.3535 119.525 72.8442 119.525 73.5107C119.525 74.1699 120.008 74.6606 120.696 74.6606Z" fill="black"/>
<path d="M128.724 80H130.533V78.0298H131.961V76.4331H130.533V69.4312H127.867C126 72.2437 124.513 74.5947 123.561 76.3452V78.0298H128.724V80ZM125.311 76.3672C126.542 74.1992 127.64 72.4634 128.651 70.9692H128.753V76.4771H125.311V76.3672Z" fill="black"/>
<path d="M135.99 80H137.88V69.4312H135.997L133.236 71.3647V73.1812L135.866 71.3354H135.99V80Z" fill="black"/>
<rect x="197" y="851" width="134" height="5" rx="2.5" fill="black"/>
<path d="M354.66 399H179.34C178.048 399 177 399.892 177 400.993V440.752C177 441.853 178.048 442.745 179.34 442.745H354.66C355.952 442.745 357 441.853 357 440.752V400.993C357 399.892 355.952 399 354.66 399Z" stroke="url(#paint0_linear_1508_10459)" stroke-width="0.717131"/>
<path d="M186.175 414.386C186.175 412.118 186.748 410.481 187.893 409.476C189.039 408.471 190.897 407.968 193.469 407.968C195.269 407.968 196.718 408.436 197.817 409.371C198.916 410.306 199.711 411.732 200.202 413.649L196.941 416.104H195.222L199.01 413.263C198.519 411.697 197.806 410.598 196.87 409.967C195.959 409.336 194.825 409.02 193.469 409.02C192.534 409.02 191.739 409.079 191.084 409.195C190.453 409.312 189.81 409.546 189.155 409.897C188.524 410.224 188.045 410.762 187.718 411.51C187.39 412.258 187.227 413.217 187.227 414.386C187.227 415.414 187.694 416.326 188.629 417.121C189.588 417.916 190.745 418.594 192.101 419.155C193.457 419.716 194.813 420.289 196.169 420.873C197.548 421.458 198.706 422.206 199.641 423.117C200.599 424.029 201.079 425.081 201.079 426.273C201.079 428.611 200.494 430.353 199.325 431.499C198.18 432.644 196.204 433.217 193.399 433.217C191.108 433.217 189.307 432.761 187.998 431.849C186.689 430.914 185.789 429.476 185.298 427.536L186.28 427.115C186.748 429.009 187.542 430.33 188.665 431.078C189.81 431.802 191.388 432.165 193.399 432.165C195.643 432.165 197.303 431.732 198.378 430.867C199.477 430.002 200.026 428.471 200.026 426.273C200.026 425.245 199.547 424.333 198.589 423.538C197.654 422.743 196.496 422.065 195.117 421.504C193.761 420.943 192.405 420.37 191.049 419.786C189.693 419.201 188.536 418.453 187.577 417.542C186.642 416.63 186.175 415.578 186.175 414.386ZM209.584 431.814H223.401V410.809L215.511 427.711L207.62 410.774V432.866L206.568 432.831V408.284H207.62L215.511 425.221L223.401 408.319L224.453 408.284V432.866L209.584 432.831V431.814ZM232.028 431.814H244.933L237.498 411.37L229.678 432.866H228.556L237.498 408.284L246.441 432.866H232.028V431.814ZM253.275 431.814H262.954L258.711 420.172L260.674 419.05C262.288 418.161 263.094 416.747 263.094 414.806C263.094 411.183 260.335 409.371 254.818 409.371H251.592V432.866H250.54V408.319H254.818C257.904 408.319 260.23 408.892 261.797 410.037C263.363 411.159 264.146 412.749 264.146 414.806C264.146 417.144 263.164 418.862 261.201 419.961L260.008 420.628L264.462 432.866H253.275V431.814ZM284.408 408.319V409.371H276.168V432.866H275.116V409.371H266.875V408.319H284.408ZM289.468 432.866H288.416V408.319H289.468V432.866ZM299.762 432.866H296.395V408.319H299.762C303.128 408.319 305.98 409.558 308.318 412.036C310.656 414.514 311.825 417.366 311.825 420.593C311.825 423.819 310.656 426.671 308.318 429.149C305.98 431.627 303.128 432.866 299.762 432.866ZM299.762 431.814C302.824 431.814 305.419 430.692 307.547 428.448C309.697 426.18 310.773 423.562 310.773 420.593C310.773 417.623 309.697 415.017 307.547 412.772C305.419 410.505 302.824 409.371 299.762 409.371H297.447V431.814H299.762ZM331.841 431.814V432.866H317.182V408.319H318.234V431.814H331.841ZM337.039 408.319H351.241L342.474 422.346V432.866H341.422V422.346L332.655 408.319H333.882L341.948 421.189L349.347 409.371H337.039V408.319Z" fill="white"/>
</g>
</g>
<mask id="path-17-inside-1_1508_10459" fill="white">
<path fill-rule="evenodd" clip-rule="evenodd" d="M158.469 52C161.571 52 164.674 55.0926 164.693 58.1948V65.6057C164.693 73.56 171.141 80.0083 179.096 80.0083H347.904C355.859 80.0083 362.307 73.56 362.307 65.6057V52H164.693H164.693H158.469ZM362.307 57.4461C362.307 54.334 364.641 52 367.753 52H362.307V57.4461Z"/>
</mask>
<path d="M164.693 58.1948H165.193L165.193 58.1917L164.693 58.1948ZM362.307 52H362.807V51.5H362.307V52ZM362.307 52V51.5H361.807V52H362.307ZM165.193 58.1917C165.182 56.4791 164.326 54.8106 163.09 53.5798C161.854 52.349 160.182 51.5 158.469 51.5V52.5C159.858 52.5 161.289 53.1973 162.384 54.2884C163.48 55.3794 164.184 56.8083 164.193 58.1979L165.193 58.1917ZM165.193 65.6057V58.1948H164.193V65.6057H165.193ZM179.096 79.5083C171.417 79.5083 165.193 73.2839 165.193 65.6057H164.193C164.193 73.8362 170.865 80.5083 179.096 80.5083V79.5083ZM347.904 79.5083H179.096V80.5083H347.904V79.5083ZM361.807 65.6057C361.807 73.2839 355.583 79.5083 347.904 79.5083V80.5083C356.135 80.5083 362.807 73.8362 362.807 65.6057H361.807ZM361.807 52V65.6057H362.807V52H361.807ZM164.693 52.5H362.307V51.5H164.693V52.5ZM164.693 52.5H164.693V51.5H164.693V52.5ZM158.469 52.5H164.693V51.5H158.469V52.5ZM367.753 51.5C364.365 51.5 361.807 54.0579 361.807 57.4461H362.807C362.807 54.6102 364.917 52.5 367.753 52.5V51.5ZM362.307 52.5H367.753V51.5H362.307V52.5ZM362.807 57.4461V52H361.807V57.4461H362.807Z" fill="#1E1E20" style="mix-blend-mode:overlay" mask="url(#path-17-inside-1_1508_10459)"/>
<path fill-rule="evenodd" clip-rule="evenodd" d="M158.469 52C161.575 52 164.682 55.1008 164.693 58.2072V65.6057C164.693 73.56 171.141 80.0083 179.096 80.0083H347.904C355.859 80.0083 362.307 73.56 362.307 65.6057V52H164.693H164.693H158.469ZM362.307 57.4461C362.307 54.334 364.641 52 367.753 52H362.307V57.4461Z" fill="#1E1E20"/>
<circle r="6" transform="matrix(-1 0 0 1 296 62)" fill="#333333"/>
<rect x="225" y="58" width="50" height="8" rx="4" fill="#333333"/>
</g>
<rect x="68" y="44" width="391" height="828" rx="48" stroke="#1E1E20" stroke-width="16"/>
</g>
<defs>
<filter id="filter0_d_1508_10459" x="0" y="0" width="565" height="996" filterUnits="userSpaceOnUse" color-interpolation-filters="sRGB">
<feFlood flood-opacity="0" result="BackgroundImageFix"/>
<feColorMatrix in="SourceAlpha" type="matrix" values="0 0 0 0 0 0 0 0 0 0 0 0 0 0 0 0 0 0 127 0" result="hardAlpha"/>
<feOffset dx="20" dy="40"/>
<feGaussianBlur stdDeviation="35"/>
<feComposite in2="hardAlpha" operator="out"/>
<feColorMatrix type="matrix" values="0 0 0 0 0 0 0 0 0 0 0 0 0 0 0 0 0 0 0.9 0"/>
<feBlend mode="normal" in2="BackgroundImageFix" result="effect1_dropShadow_1508_10459"/>
<feBlend mode="normal" in="SourceGraphic" in2="effect1_dropShadow_1508_10459" result="shape"/>
</filter>
<linearGradient id="paint0_linear_1508_10459" x1="177" y1="399" x2="177" y2="432.78" gradientUnits="userSpaceOnUse">
<stop stop-color="white"/>
</linearGradient>
<clipPath id="clip0_1508_10459">
<rect x="76" y="52" width="375" height="812" rx="40" fill="white"/>
</clipPath>
<clipPath id="clip1_1508_10459">
<rect width="375" height="812" fill="white" transform="translate(76 52)"/>
</clipPath>
<clipPath id="clip2_1508_10459">
<rect width="375" height="812" fill="white" transform="translate(76 52)"/>
</clipPath>
</defs>
</svg>
