<svg width="32" height="41" viewBox="0 0 32 41" fill="none" xmlns="http://www.w3.org/2000/svg">
<path d="M30.6099 1H1.39007C1.17464 1 1 1.79418 1 2.77386V38.1623C1 39.142 1.17464 39.9362 1.39007 39.9362H30.6099C30.8254 39.9362 31 39.142 31 38.1623V2.77386C31 1.79418 30.8254 1 30.6099 1Z" stroke="url(#paint0_linear_440_6223)" stroke-width="0.638298"/>
<path d="M9.17971 15.4649C9.17971 13.4465 9.68952 11.9899 10.7091 11.0951C11.7288 10.2004 13.383 9.753 15.672 9.753C17.2742 9.753 18.5644 10.1692 19.5424 11.0015C20.5204 11.8338 21.2278 13.1032 21.6648 14.8095L18.762 16.9944H17.2326L20.6036 14.4661C20.1666 13.072 19.5319 12.094 18.6996 11.5321C17.8881 10.9703 16.8789 10.6894 15.672 10.6894C14.8396 10.6894 14.1321 10.7414 13.5495 10.8454C12.9877 10.9495 12.4154 11.1576 11.8328 11.4697C11.271 11.761 10.8444 12.2396 10.5531 12.9055C10.2618 13.5714 10.1161 14.4245 10.1161 15.4649C10.1161 16.3805 10.5323 17.192 11.3646 17.8995C12.2178 18.607 13.2478 19.2105 14.4547 19.7099C15.6616 20.2093 16.8685 20.7191 18.0754 21.2393C19.3031 21.7595 20.3331 22.4254 21.1654 23.2369C22.0186 24.0484 22.4451 24.9848 22.4451 26.0461C22.4451 28.1269 21.9249 29.6771 20.8845 30.6968C19.8649 31.7164 18.1066 32.2262 15.6095 32.2262C13.5703 32.2262 11.9681 31.8204 10.8028 31.0089C9.6375 30.1766 8.83637 28.8968 8.39939 27.1697L9.27335 26.7952C9.68952 28.4807 10.397 29.6563 11.3958 30.3222C12.4154 30.9673 13.82 31.2898 15.6095 31.2898C17.6072 31.2898 19.0846 30.9048 20.0418 30.1349C21.0198 29.365 21.5088 28.0021 21.5088 26.0461C21.5088 25.1305 21.0822 24.319 20.229 23.6115C19.3967 22.904 18.3667 22.3005 17.139 21.8011C15.9321 21.3017 14.7252 20.7919 13.5183 20.2717C12.3114 19.7515 11.2814 19.0856 10.4282 18.2741C9.59588 17.4626 9.17971 16.5262 9.17971 15.4649Z" fill="black"/>
<defs>
<linearGradient id="paint0_linear_440_6223" x1="1" y1="1" x2="1" y2="31.0669" gradientUnits="userSpaceOnUse">
<stop/>
</linearGradient>
</defs>
</svg>
