<svg width="255" height="65" viewBox="0 0 255 65" fill="none" xmlns="http://www.w3.org/2000/svg">
<path d="M249.736 2H5.26355C3.46114 2 2 3.24422 2 4.77904V60.221C2 61.7558 3.46114 63 5.26355 63H249.736C251.539 63 253 61.7558 253 60.221V4.77904C253 3.24422 251.539 2 249.736 2Z" stroke="url(#paint0_linear_437_3467)" stroke-width="3"/>
<path d="M14.7939 23.8321C14.7939 20.6699 15.5926 18.3879 17.19 16.9861C18.7874 15.5843 21.3791 14.8834 24.9651 14.8834C27.4753 14.8834 29.4965 15.5354 31.0287 16.8394C32.5609 18.1434 33.6693 20.132 34.3539 22.8052L29.8062 26.2282H27.4101L32.6913 22.2673C32.0067 20.0831 31.0124 18.5509 29.7084 17.6707C28.437 16.7905 26.8559 16.3504 24.9651 16.3504C23.6611 16.3504 22.5527 16.4319 21.6399 16.5949C20.7597 16.7579 19.8632 17.0839 18.9504 17.5729C18.0702 18.0293 17.4019 18.7791 16.9455 19.8223C16.4891 20.8655 16.2609 22.2021 16.2609 23.8321C16.2609 25.2665 16.9129 26.5379 18.2169 27.6463C19.5535 28.7547 21.1672 29.7001 23.058 30.4825C24.9488 31.2649 26.8396 32.0636 28.7304 32.8786C30.6538 33.6936 32.2675 34.7368 33.5715 36.0082C34.9081 37.2796 35.5764 38.7466 35.5764 40.4092C35.5764 43.6692 34.7614 46.0979 33.1314 47.6953C31.534 49.2927 28.7793 50.0914 24.8673 50.0914C21.6725 50.0914 19.1623 49.4557 17.3367 48.1843C15.5111 46.8803 14.256 44.8754 13.5714 42.1696L14.9406 41.5828C15.5926 44.2234 16.701 46.0653 18.2658 47.1085C19.8632 48.1191 22.0637 48.6244 24.8673 48.6244C27.9969 48.6244 30.3115 48.0213 31.8111 46.8151C33.3433 45.6089 34.1094 43.4736 34.1094 40.4092C34.1094 38.9748 33.4411 37.7034 32.1045 36.595C30.8005 35.4866 29.1868 34.5412 27.2634 33.7588C25.3726 32.9764 23.4818 32.1777 21.591 31.3627C19.7002 30.5477 18.0865 29.5045 16.7499 28.2331C15.4459 26.9617 14.7939 25.4947 14.7939 23.8321ZM47.437 48.1354H66.7036V18.8443L55.7011 42.4141L44.6986 18.7954V49.6024L43.2316 49.5535V15.3235H44.6986L55.7011 38.9422L66.7036 15.3724L68.1706 15.3235V49.6024L47.437 49.5535V48.1354ZM78.7334 48.1354H96.7286L86.3618 19.6267L75.4571 49.6024H73.8923L86.3618 15.3235L98.8313 49.6024H78.7334V48.1354ZM108.362 48.1354H121.858L115.941 31.9006L118.68 30.3358C120.929 29.097 122.054 27.1247 122.054 24.4189C122.054 19.3659 118.207 16.8394 110.513 16.8394H106.015V49.6024H104.548V15.3724H110.513C114.817 15.3724 118.06 16.1711 120.244 17.7685C122.429 19.3333 123.521 21.5501 123.521 24.4189C123.521 27.6789 122.152 30.075 119.413 31.6072L117.751 32.5363L123.961 49.6024H108.362V48.1354ZM151.775 15.3724V16.8394H140.284V49.6024H138.817V16.8394H127.325V15.3724H151.775ZM158.83 49.6024H157.363V15.3724H158.83V49.6024ZM173.184 49.6024H168.49V15.3724H173.184C177.879 15.3724 181.856 17.1002 185.116 20.5558C188.376 24.0114 190.006 27.9886 190.006 32.4874C190.006 36.9862 188.376 40.9634 185.116 44.419C181.856 47.8746 177.879 49.6024 173.184 49.6024ZM173.184 48.1354C177.455 48.1354 181.074 46.5706 184.04 43.441C187.039 40.2788 188.539 36.6276 188.539 32.4874C188.539 28.3472 187.039 24.7123 184.04 21.5827C181.074 18.4205 177.455 16.8394 173.184 16.8394H169.957V48.1354H173.184ZM217.917 48.1354V49.6024H197.477V15.3724H198.944V48.1354H217.917ZM225.165 15.3724H244.97L232.745 34.9324V49.6024H231.278V34.9324L219.053 15.3724H220.764L232.011 33.3187L242.329 16.8394H225.165V15.3724Z" fill="#113363"/>
<defs>
<linearGradient id="paint0_linear_437_3467" x1="2" y1="2" x2="2" y2="49.1048" gradientUnits="userSpaceOnUse">
<stop stop-color="#113363"/>
</linearGradient>
</defs>
</svg>
