<svg width="182" height="46" viewBox="0 0 182 46" fill="none" xmlns="http://www.w3.org/2000/svg">
<path d="M178.66 1H3.3404C2.04783 1 1 1.89227 1 2.99294V42.7521C1 43.8528 2.04783 44.745 3.3404 44.745H178.66C179.952 44.745 181 43.8528 181 42.7521V2.99294C181 1.89227 179.952 1 178.66 1Z" stroke="url(#paint0_linear_389_4776)" stroke-width="0.717131"/>
<path d="M10.1747 16.3855C10.1747 14.1178 10.7475 12.4813 11.8931 11.476C13.0386 10.4708 14.8972 9.96812 17.4688 9.96812C19.269 9.96812 20.7184 10.4357 21.8172 11.3708C22.916 12.306 23.7109 13.7321 24.2018 15.6491L20.9405 18.1038H19.2222L23.0095 15.2633C22.5186 13.697 21.8055 12.5982 20.8704 11.967C19.9586 11.3358 18.8248 11.0202 17.4688 11.0202C16.5337 11.0202 15.7388 11.0786 15.0842 11.1955C14.453 11.3124 13.8101 11.5462 13.1555 11.8968C12.5243 12.2241 12.045 12.7619 11.7177 13.51C11.3904 14.2581 11.2268 15.2166 11.2268 16.3855C11.2268 17.4142 11.6943 18.3259 12.6295 19.1208C13.588 19.9157 14.7452 20.5936 16.1012 21.1547C17.4571 21.7158 18.8131 22.2886 20.169 22.873C21.5484 23.4575 22.7056 24.2056 23.6407 25.1174C24.5993 26.0291 25.0785 27.0812 25.0785 28.2735C25.0785 30.6113 24.4941 32.353 23.3251 33.4986C22.1796 34.6441 20.2041 35.2169 17.3987 35.2169C15.1076 35.2169 13.3075 34.761 11.9983 33.8492C10.6891 32.9141 9.78899 31.4763 9.29804 29.5359L10.2799 29.1151C10.7475 31.0088 11.5424 32.3296 12.6645 33.0778C13.8101 33.8025 15.3881 34.1649 17.3987 34.1649C19.643 34.1649 21.3029 33.7324 22.3783 32.8674C23.4771 32.0023 24.0265 30.4711 24.0265 28.2735C24.0265 27.2448 23.5472 26.3331 22.5887 25.5382C21.6536 24.7433 20.4963 24.0653 19.117 23.5043C17.7611 22.9432 16.4051 22.3704 15.0492 21.7859C13.6932 21.2015 12.536 20.4534 11.5774 19.5416C10.6423 18.6299 10.1747 17.5778 10.1747 16.3855ZM33.5841 33.8142H47.4008V12.8086L39.5105 29.7113L31.6203 12.7735V34.8662L30.5683 34.8311V10.2837H31.6203L39.5105 27.2214L47.4008 10.3188L48.4528 10.2837V34.8662L33.5841 34.8311V33.8142ZM56.0277 33.8142H68.9326L61.4983 13.3697L53.6782 34.8662H52.556L61.4983 10.2837L70.4405 34.8662H56.0277V33.8142ZM77.2752 33.8142H86.9539L82.7107 22.1717L84.6745 21.0495C86.2876 20.1611 87.0942 18.7467 87.0942 16.8063C87.0942 13.1827 84.3355 11.3708 78.8182 11.3708H75.5919V34.8662H74.5399V10.3188H78.8182C81.9041 10.3188 84.2303 10.8916 85.7967 12.0371C87.363 13.1593 88.1462 14.749 88.1462 16.8063C88.1462 19.1442 87.1643 20.8625 85.2005 21.9613L84.0082 22.6276L88.4618 34.8662H77.2752V33.8142ZM108.408 10.3188V11.3708H100.168V34.8662H99.1155V11.3708H90.8746V10.3188H108.408ZM113.468 34.8662H112.416V10.3188H113.468V34.8662ZM123.762 34.8662H120.395V10.3188H123.762C127.128 10.3188 129.98 11.5579 132.318 14.036C134.656 16.5141 135.825 19.3663 135.825 22.5925C135.825 25.8187 134.656 28.6709 132.318 31.149C129.98 33.6272 127.128 34.8662 123.762 34.8662ZM123.762 33.8142C126.824 33.8142 129.419 32.692 131.547 30.4477C133.697 28.18 134.773 25.5616 134.773 22.5925C134.773 19.6234 133.697 17.0167 131.547 14.7724C129.419 12.5047 126.824 11.3708 123.762 11.3708H121.447V33.8142H123.762ZM155.841 33.8142V34.8662H141.182V10.3188H142.234V33.8142H155.841ZM161.039 10.3188H175.241L166.474 24.3459V34.8662H165.422V24.3459L156.655 10.3188H157.882L165.948 23.1887L173.347 11.3708H161.039V10.3188Z" fill="black"/>
<defs>
<linearGradient id="paint0_linear_389_4776" x1="1" y1="1" x2="1" y2="34.7803" gradientUnits="userSpaceOnUse">
<stop/>
</linearGradient>
</defs>
</svg>
