<svg width="5482" height="2180" viewBox="0 0 5482 2180" fill="none" xmlns="http://www.w3.org/2000/svg">
<path d="M328.609 1527.72H326.896L306.679 1567.81L249.456 1671.98L192.234 1567.81L172.017 1527.72H170.304V1729.2H142.206V1490.03H180.583L249.114 1618.87H250.827L319.7 1490.03H356.706V1729.2H328.609V1527.72ZM431.241 1510.93C425.302 1510.93 420.962 1509.56 418.22 1506.82C415.708 1503.85 414.451 1500.08 414.451 1495.51V1491.06C414.451 1486.49 415.708 1482.83 418.22 1480.09C420.962 1477.12 425.302 1475.64 431.241 1475.64C437.18 1475.64 441.407 1477.12 443.919 1480.09C446.661 1482.83 448.031 1486.49 448.031 1491.06V1495.51C448.031 1500.08 446.661 1503.85 443.919 1506.82C441.407 1509.56 437.18 1510.93 431.241 1510.93ZM417.535 1552.39H444.947V1729.2H417.535V1552.39ZM556.309 1733.31C539.862 1733.31 526.042 1730.23 514.848 1724.06C503.883 1717.67 494.403 1709.21 486.408 1698.71L505.939 1682.94C512.792 1691.62 520.445 1698.36 528.897 1703.16C537.349 1707.73 547.172 1710.01 558.365 1710.01C570.015 1710.01 579.038 1707.5 585.434 1702.47C592.059 1697.45 595.371 1690.37 595.371 1681.23C595.371 1674.38 593.087 1668.55 588.518 1663.75C584.178 1658.73 576.183 1655.3 564.533 1653.48L550.484 1651.42C542.26 1650.28 534.722 1648.56 527.869 1646.28C521.016 1643.77 514.962 1640.57 509.708 1636.69C504.683 1632.57 500.685 1627.55 497.716 1621.61C494.974 1615.67 493.604 1608.59 493.604 1600.36C493.604 1591.68 495.203 1584.15 498.401 1577.75C501.599 1571.12 505.939 1565.64 511.422 1561.3C517.133 1556.96 523.871 1553.76 531.638 1551.71C539.405 1549.42 547.743 1548.28 556.652 1548.28C571.043 1548.28 583.036 1550.79 592.63 1555.82C602.453 1560.84 611.019 1567.81 618.329 1576.72L600.168 1593.17C596.285 1587.69 590.574 1582.77 583.036 1578.43C575.498 1573.87 566.018 1571.58 554.596 1571.58C543.174 1571.58 534.494 1574.09 528.554 1579.12C522.843 1583.92 519.988 1590.54 519.988 1598.99C519.988 1607.67 522.843 1613.96 528.554 1617.84C534.494 1621.72 542.946 1624.58 553.911 1626.41L567.617 1628.46C587.262 1631.43 601.196 1637.14 609.42 1645.59C617.644 1653.82 621.756 1664.67 621.756 1678.15C621.756 1695.28 615.93 1708.76 604.28 1718.58C592.63 1728.4 576.64 1733.31 556.309 1733.31ZM721.277 1733.31C704.83 1733.31 691.01 1730.23 679.816 1724.06C668.851 1717.67 659.371 1709.21 651.376 1698.71L670.907 1682.94C677.76 1691.62 685.413 1698.36 693.865 1703.16C702.317 1707.73 712.14 1710.01 723.333 1710.01C734.983 1710.01 744.006 1707.5 750.403 1702.47C757.027 1697.45 760.339 1690.37 760.339 1681.23C760.339 1674.38 758.055 1668.55 753.486 1663.75C749.146 1658.73 741.151 1655.3 729.501 1653.48L715.452 1651.42C707.228 1650.28 699.69 1648.56 692.837 1646.28C685.984 1643.77 679.93 1640.57 674.676 1636.69C669.651 1632.57 665.653 1627.55 662.684 1621.61C659.942 1615.67 658.572 1608.59 658.572 1600.36C658.572 1591.68 660.171 1584.15 663.369 1577.75C666.567 1571.12 670.907 1565.64 676.39 1561.3C682.101 1556.96 688.839 1553.76 696.606 1551.71C704.373 1549.42 712.711 1548.28 721.62 1548.28C736.011 1548.28 748.004 1550.79 757.598 1555.82C767.421 1560.84 775.987 1567.81 783.297 1576.72L765.137 1593.17C761.253 1587.69 755.542 1582.77 748.004 1578.43C740.466 1573.87 730.986 1571.58 719.564 1571.58C708.142 1571.58 699.462 1574.09 693.522 1579.12C687.811 1583.92 684.956 1590.54 684.956 1598.99C684.956 1607.67 687.811 1613.96 693.522 1617.84C699.462 1621.72 707.914 1624.58 718.879 1626.41L732.585 1628.46C752.23 1631.43 766.164 1637.14 774.388 1645.59C782.612 1653.82 786.724 1664.67 786.724 1678.15C786.724 1695.28 780.899 1708.76 769.248 1718.58C757.598 1728.4 741.608 1733.31 721.277 1733.31ZM848.848 1510.93C842.909 1510.93 838.568 1509.56 835.827 1506.82C833.314 1503.85 832.058 1500.08 832.058 1495.51V1491.06C832.058 1486.49 833.314 1482.83 835.827 1480.09C838.568 1477.12 842.909 1475.64 848.848 1475.64C854.787 1475.64 859.013 1477.12 861.526 1480.09C864.267 1482.83 865.638 1486.49 865.638 1491.06V1495.51C865.638 1500.08 864.267 1503.85 861.526 1506.82C859.013 1509.56 854.787 1510.93 848.848 1510.93ZM835.142 1552.39H862.554V1729.2H835.142V1552.39ZM987.622 1733.31C975.743 1733.31 964.893 1731.14 955.07 1726.8C945.247 1722.46 936.795 1716.29 929.714 1708.3C922.861 1700.08 917.493 1690.37 913.609 1679.17C909.726 1667.75 907.784 1654.96 907.784 1640.8C907.784 1626.86 909.726 1614.18 913.609 1602.76C917.493 1591.34 922.861 1581.63 929.714 1573.64C936.795 1565.41 945.247 1559.13 955.07 1554.79C964.893 1550.45 975.743 1548.28 987.622 1548.28C999.501 1548.28 1010.24 1550.45 1019.83 1554.79C1029.65 1559.13 1038.11 1565.41 1045.19 1573.64C1052.27 1581.63 1057.75 1591.34 1061.63 1602.76C1065.52 1614.18 1067.46 1626.86 1067.46 1640.8C1067.46 1654.96 1065.52 1667.75 1061.63 1679.17C1057.75 1690.37 1052.27 1700.08 1045.19 1708.3C1038.11 1716.29 1029.65 1722.46 1019.83 1726.8C1010.24 1731.14 999.501 1733.31 987.622 1733.31ZM987.622 1708.98C1002.47 1708.98 1014.58 1704.42 1023.94 1695.28C1033.31 1686.14 1037.99 1672.21 1037.99 1653.48V1628.12C1037.99 1609.39 1033.31 1595.45 1023.94 1586.32C1014.58 1577.18 1002.47 1572.61 987.622 1572.61C972.774 1572.61 960.667 1577.18 951.301 1586.32C941.935 1595.45 937.252 1609.39 937.252 1628.12V1653.48C937.252 1672.21 941.935 1686.14 951.301 1695.28C960.667 1704.42 972.774 1708.98 987.622 1708.98ZM1112.54 1729.2V1552.39H1139.95V1581.18H1141.33C1145.67 1571.12 1151.72 1563.13 1159.49 1557.19C1167.48 1551.25 1178.1 1548.28 1191.35 1548.28C1209.63 1548.28 1224.02 1554.22 1234.53 1566.1C1245.26 1577.75 1250.63 1594.31 1250.63 1615.78V1729.2H1223.22V1620.58C1223.22 1588.83 1209.86 1572.95 1183.13 1572.95C1177.65 1572.95 1172.28 1573.64 1167.02 1575.01C1162 1576.38 1157.43 1578.43 1153.32 1581.18C1149.21 1583.92 1145.89 1587.46 1143.38 1591.8C1141.1 1595.91 1139.95 1600.82 1139.95 1606.53V1729.2H1112.54ZM1516.76 1729.2C1506.48 1729.2 1499.06 1726.46 1494.49 1720.98C1490.15 1715.5 1487.41 1708.64 1486.27 1700.42H1484.56C1480.67 1711.38 1474.28 1719.61 1465.37 1725.09C1456.46 1730.57 1445.84 1733.31 1433.5 1733.31C1414.77 1733.31 1400.15 1728.52 1389.64 1718.92C1379.36 1709.33 1374.22 1696.31 1374.22 1679.86C1374.22 1663.18 1380.27 1650.39 1392.38 1641.48C1404.72 1632.57 1423.79 1628.12 1449.6 1628.12H1484.56V1610.64C1484.56 1598.08 1481.13 1588.49 1474.28 1581.86C1467.42 1575.24 1456.91 1571.92 1442.75 1571.92C1432.02 1571.92 1422.99 1574.32 1415.68 1579.12C1408.6 1583.92 1402.66 1590.31 1397.86 1598.31L1381.42 1582.89C1386.21 1573.29 1393.87 1565.19 1404.37 1558.56C1414.88 1551.71 1428.13 1548.28 1444.12 1548.28C1465.6 1548.28 1482.27 1553.54 1494.15 1564.04C1506.03 1574.55 1511.97 1589.17 1511.97 1607.9V1705.22H1532.18V1729.2H1516.76ZM1437.95 1710.01C1444.81 1710.01 1451.09 1709.21 1456.8 1707.61C1462.51 1706.02 1467.42 1703.73 1471.53 1700.76C1475.65 1697.79 1478.84 1694.36 1481.13 1690.48C1483.41 1686.6 1484.56 1682.37 1484.56 1677.8V1648.68H1448.23C1432.47 1648.68 1420.94 1650.96 1413.63 1655.53C1406.54 1660.1 1403 1666.72 1403 1675.4V1682.6C1403 1691.28 1406.09 1698.02 1412.26 1702.82C1418.65 1707.61 1427.22 1710.01 1437.95 1710.01ZM1684.38 1700.42H1683.01C1672.28 1722.35 1655.03 1733.31 1631.27 1733.31C1620.31 1733.31 1610.37 1731.14 1601.46 1726.8C1592.55 1722.46 1584.9 1716.29 1578.5 1708.3C1572.34 1700.3 1567.54 1690.6 1564.11 1679.17C1560.91 1667.75 1559.31 1654.96 1559.31 1640.8C1559.31 1626.63 1560.91 1613.84 1564.11 1602.42C1567.54 1591 1572.34 1581.29 1578.5 1573.29C1584.9 1565.3 1592.55 1559.13 1601.46 1554.79C1610.37 1550.45 1620.31 1548.28 1631.27 1548.28C1643.61 1548.28 1654.12 1551.02 1662.8 1556.5C1671.7 1561.76 1678.44 1569.98 1683.01 1581.18H1684.38V1475.64H1711.79V1729.2H1684.38V1700.42ZM1638.81 1708.64C1644.98 1708.64 1650.8 1707.84 1656.29 1706.24C1662 1704.64 1666.91 1702.36 1671.02 1699.39C1675.13 1696.19 1678.33 1692.42 1680.61 1688.08C1683.13 1683.51 1684.38 1678.37 1684.38 1672.66V1606.87C1684.38 1602.08 1683.13 1597.62 1680.61 1593.51C1678.33 1589.17 1675.13 1585.52 1671.02 1582.55C1666.91 1579.58 1662 1577.29 1656.29 1575.69C1650.8 1573.87 1644.98 1572.95 1638.81 1572.95C1623.28 1572.95 1611.06 1577.86 1602.15 1587.69C1593.24 1597.28 1588.78 1609.96 1588.78 1625.72V1655.87C1588.78 1671.64 1593.24 1684.43 1602.15 1694.25C1611.06 1703.84 1623.28 1708.64 1638.81 1708.64ZM1770.07 1729.2V1552.39H1797.48V1581.18H1798.86C1800.91 1576.61 1803.2 1572.38 1805.71 1568.5C1808.45 1564.39 1811.65 1560.84 1815.3 1557.88C1819.19 1554.91 1823.64 1552.62 1828.67 1551.02C1833.69 1549.19 1839.63 1548.28 1846.48 1548.28C1858.13 1548.28 1868.87 1551.14 1878.69 1556.85C1888.52 1562.33 1895.83 1571.47 1900.62 1584.26H1901.31C1904.51 1574.67 1910.45 1566.33 1919.13 1559.25C1928.03 1551.94 1940.03 1548.28 1955.1 1548.28C1973.15 1548.28 1987.2 1554.22 1997.25 1566.1C2007.53 1577.75 2012.67 1594.31 2012.67 1615.78V1729.2H1985.26V1620.58C1985.26 1604.82 1982.17 1592.94 1976.01 1584.94C1969.84 1576.95 1960.02 1572.95 1946.54 1572.95C1941.06 1572.95 1935.8 1573.64 1930.78 1575.01C1925.98 1576.38 1921.64 1578.43 1917.76 1581.18C1913.87 1583.92 1910.79 1587.46 1908.5 1591.8C1906.22 1595.91 1905.08 1600.82 1905.08 1606.53V1729.2H1877.67V1620.58C1877.67 1604.82 1874.58 1592.94 1868.41 1584.94C1862.25 1576.95 1852.65 1572.95 1839.63 1572.95C1834.15 1572.95 1828.89 1573.64 1823.87 1575.01C1818.84 1576.38 1814.39 1578.43 1810.51 1581.18C1806.62 1583.92 1803.42 1587.46 1800.91 1591.8C1798.63 1595.91 1797.48 1600.82 1797.48 1606.53V1729.2H1770.07ZM2082.93 1510.93C2076.99 1510.93 2072.65 1509.56 2069.91 1506.82C2067.4 1503.85 2066.14 1500.08 2066.14 1495.51V1491.06C2066.14 1486.49 2067.4 1482.83 2069.91 1480.09C2072.65 1477.12 2076.99 1475.64 2082.93 1475.64C2088.87 1475.64 2093.09 1477.12 2095.61 1480.09C2098.35 1482.83 2099.72 1486.49 2099.72 1491.06V1495.51C2099.72 1500.08 2098.35 1503.85 2095.61 1506.82C2093.09 1509.56 2088.87 1510.93 2082.93 1510.93ZM2069.22 1552.39H2096.64V1729.2H2069.22V1552.39ZM2208 1733.31C2191.55 1733.31 2177.73 1730.23 2166.54 1724.06C2155.57 1717.67 2146.09 1709.21 2138.1 1698.71L2157.63 1682.94C2164.48 1691.62 2172.13 1698.36 2180.59 1703.16C2189.04 1707.73 2198.86 1710.01 2210.05 1710.01C2221.7 1710.01 2230.73 1707.5 2237.12 1702.47C2243.75 1697.45 2247.06 1690.37 2247.06 1681.23C2247.06 1674.38 2244.78 1668.55 2240.21 1663.75C2235.87 1658.73 2227.87 1655.3 2216.22 1653.48L2202.17 1651.42C2193.95 1650.28 2186.41 1648.56 2179.56 1646.28C2172.7 1643.77 2166.65 1640.57 2161.4 1636.69C2156.37 1632.57 2152.37 1627.55 2149.4 1621.61C2146.66 1615.67 2145.29 1608.59 2145.29 1600.36C2145.29 1591.68 2146.89 1584.15 2150.09 1577.75C2153.29 1571.12 2157.63 1565.64 2163.11 1561.3C2168.82 1556.96 2175.56 1553.76 2183.33 1551.71C2191.09 1549.42 2199.43 1548.28 2208.34 1548.28C2222.73 1548.28 2234.72 1550.79 2244.32 1555.82C2254.14 1560.84 2262.71 1567.81 2270.02 1576.72L2251.86 1593.17C2247.97 1587.69 2242.26 1582.77 2234.72 1578.43C2227.19 1573.87 2217.71 1571.58 2206.28 1571.58C2194.86 1571.58 2186.18 1574.09 2180.24 1579.12C2174.53 1583.92 2171.68 1590.54 2171.68 1598.99C2171.68 1607.67 2174.53 1613.96 2180.24 1617.84C2186.18 1621.72 2194.63 1624.58 2205.6 1626.41L2219.3 1628.46C2238.95 1631.43 2252.88 1637.14 2261.11 1645.59C2269.33 1653.82 2273.44 1664.67 2273.44 1678.15C2273.44 1695.28 2267.62 1708.76 2255.97 1718.58C2244.32 1728.4 2228.33 1733.31 2208 1733.31ZM2372.97 1733.31C2356.52 1733.31 2342.7 1730.23 2331.5 1724.06C2320.54 1717.67 2311.06 1709.21 2303.06 1698.71L2322.6 1682.94C2329.45 1691.62 2337.1 1698.36 2345.55 1703.16C2354.01 1707.73 2363.83 1710.01 2375.02 1710.01C2386.67 1710.01 2395.69 1707.5 2402.09 1702.47C2408.72 1697.45 2412.03 1690.37 2412.03 1681.23C2412.03 1674.38 2409.74 1668.55 2405.17 1663.75C2400.83 1658.73 2392.84 1655.3 2381.19 1653.48L2367.14 1651.42C2358.92 1650.28 2351.38 1648.56 2344.53 1646.28C2337.67 1643.77 2331.62 1640.57 2326.36 1636.69C2321.34 1632.57 2317.34 1627.55 2314.37 1621.61C2311.63 1615.67 2310.26 1608.59 2310.26 1600.36C2310.26 1591.68 2311.86 1584.15 2315.06 1577.75C2318.26 1571.12 2322.6 1565.64 2328.08 1561.3C2333.79 1556.96 2340.53 1553.76 2348.29 1551.71C2356.06 1549.42 2364.4 1548.28 2373.31 1548.28C2387.7 1548.28 2399.69 1550.79 2409.29 1555.82C2419.11 1560.84 2427.68 1567.81 2434.99 1576.72L2416.82 1593.17C2412.94 1587.69 2407.23 1582.77 2399.69 1578.43C2392.15 1573.87 2382.67 1571.58 2371.25 1571.58C2359.83 1571.58 2351.15 1574.09 2345.21 1579.12C2339.5 1583.92 2336.64 1590.54 2336.64 1598.99C2336.64 1607.67 2339.5 1613.96 2345.21 1617.84C2351.15 1621.72 2359.6 1624.58 2370.57 1626.41L2384.27 1628.46C2403.92 1631.43 2417.85 1637.14 2426.08 1645.59C2434.3 1653.82 2438.41 1664.67 2438.41 1678.15C2438.41 1695.28 2432.59 1708.76 2420.94 1718.58C2409.29 1728.4 2393.3 1733.31 2372.97 1733.31ZM2500.54 1510.93C2494.6 1510.93 2490.26 1509.56 2487.52 1506.82C2485 1503.85 2483.75 1500.08 2483.75 1495.51V1491.06C2483.75 1486.49 2485 1482.83 2487.52 1480.09C2490.26 1477.12 2494.6 1475.64 2500.54 1475.64C2506.48 1475.64 2510.7 1477.12 2513.21 1480.09C2515.96 1482.83 2517.33 1486.49 2517.33 1491.06V1495.51C2517.33 1500.08 2515.96 1503.85 2513.21 1506.82C2510.7 1509.56 2506.48 1510.93 2500.54 1510.93ZM2486.83 1552.39H2514.24V1729.2H2486.83V1552.39ZM2639.31 1733.31C2627.43 1733.31 2616.58 1731.14 2606.76 1726.8C2596.94 1722.46 2588.48 1716.29 2581.4 1708.3C2574.55 1700.08 2569.18 1690.37 2565.3 1679.17C2561.41 1667.75 2559.47 1654.96 2559.47 1640.8C2559.47 1626.86 2561.41 1614.18 2565.3 1602.76C2569.18 1591.34 2574.55 1581.63 2581.4 1573.64C2588.48 1565.41 2596.94 1559.13 2606.76 1554.79C2616.58 1550.45 2627.43 1548.28 2639.31 1548.28C2651.19 1548.28 2661.93 1550.45 2671.52 1554.79C2681.34 1559.13 2689.79 1565.41 2696.88 1573.64C2703.96 1581.63 2709.44 1591.34 2713.32 1602.76C2717.21 1614.18 2719.15 1626.86 2719.15 1640.8C2719.15 1654.96 2717.21 1667.75 2713.32 1679.17C2709.44 1690.37 2703.96 1700.08 2696.88 1708.3C2689.79 1716.29 2681.34 1722.46 2671.52 1726.8C2661.93 1731.14 2651.19 1733.31 2639.31 1733.31ZM2639.31 1708.98C2654.16 1708.98 2666.27 1704.42 2675.63 1695.28C2685 1686.14 2689.68 1672.21 2689.68 1653.48V1628.12C2689.68 1609.39 2685 1595.45 2675.63 1586.32C2666.27 1577.18 2654.16 1572.61 2639.31 1572.61C2624.46 1572.61 2612.35 1577.18 2602.99 1586.32C2593.62 1595.45 2588.94 1609.39 2588.94 1628.12V1653.48C2588.94 1672.21 2593.62 1686.14 2602.99 1695.28C2612.35 1704.42 2624.46 1708.98 2639.31 1708.98ZM2764.23 1729.2V1552.39H2791.64V1581.18H2793.01C2797.35 1571.12 2803.41 1563.13 2811.17 1557.19C2819.17 1551.25 2829.79 1548.28 2843.04 1548.28C2861.32 1548.28 2875.71 1554.22 2886.21 1566.1C2896.95 1577.75 2902.32 1594.31 2902.32 1615.78V1729.2H2874.91V1620.58C2874.91 1588.83 2861.54 1572.95 2834.82 1572.95C2829.33 1572.95 2823.97 1573.64 2818.71 1575.01C2813.69 1576.38 2809.12 1578.43 2805.01 1581.18C2800.89 1583.92 2797.58 1587.46 2795.07 1591.8C2792.79 1595.91 2791.64 1600.82 2791.64 1606.53V1729.2H2764.23ZM3012.09 1733.31C2995.64 1733.31 2981.82 1730.23 2970.63 1724.06C2959.67 1717.67 2950.19 1709.21 2942.19 1698.71L2961.72 1682.94C2968.57 1691.62 2976.23 1698.36 2984.68 1703.16C2993.13 1707.73 3002.95 1710.01 3014.15 1710.01C3025.8 1710.01 3034.82 1707.5 3041.22 1702.47C3047.84 1697.45 3051.15 1690.37 3051.15 1681.23C3051.15 1674.38 3048.87 1668.55 3044.3 1663.75C3039.96 1658.73 3031.96 1655.3 3020.31 1653.48L3006.27 1651.42C2998.04 1650.28 2990.5 1648.56 2983.65 1646.28C2976.8 1643.77 2970.74 1640.57 2965.49 1636.69C2960.46 1632.57 2956.47 1627.55 2953.5 1621.61C2950.76 1615.67 2949.39 1608.59 2949.39 1600.36C2949.39 1591.68 2950.98 1584.15 2954.18 1577.75C2957.38 1571.12 2961.72 1565.64 2967.2 1561.3C2972.91 1556.96 2979.65 1553.76 2987.42 1551.71C2995.19 1549.42 3003.52 1548.28 3012.43 1548.28C3026.83 1548.28 3038.82 1550.79 3048.41 1555.82C3058.23 1560.84 3066.8 1567.81 3074.11 1576.72L3055.95 1593.17C3052.07 1587.69 3046.36 1582.77 3038.82 1578.43C3031.28 1573.87 3021.8 1571.58 3010.38 1571.58C2998.96 1571.58 2990.28 1574.09 2984.34 1579.12C2978.63 1583.92 2975.77 1590.54 2975.77 1598.99C2975.77 1607.67 2978.63 1613.96 2984.34 1617.84C2990.28 1621.72 2998.73 1624.58 3009.69 1626.41L3023.4 1628.46C3043.04 1631.43 3056.98 1637.14 3065.2 1645.59C3073.43 1653.82 3077.54 1664.67 3077.54 1678.15C3077.54 1695.28 3071.71 1708.76 3060.06 1718.58C3048.41 1728.4 3032.42 1733.31 3012.09 1733.31ZM3138.63 1665.81L3130.41 1559.59V1490.03H3160.56V1559.59L3152.34 1665.81H3138.63ZM3145.49 1733.31C3138.18 1733.31 3132.81 1731.49 3129.38 1727.83C3126.18 1724.18 3124.59 1719.38 3124.59 1713.44V1708.98C3124.59 1703.05 3126.18 1698.25 3129.38 1694.59C3132.81 1690.94 3138.18 1689.11 3145.49 1689.11C3152.8 1689.11 3158.05 1690.94 3161.25 1694.59C3164.68 1698.25 3166.39 1703.05 3166.39 1708.98V1713.44C3166.39 1719.38 3164.68 1724.18 3161.25 1727.83C3158.05 1731.49 3152.8 1733.31 3145.49 1733.31Z" fill="#8A8A8A"/>
<path d="M3768.98 1207.42C3755.55 1207.42 3745.47 1203.73 3738.75 1196.34C3732.04 1189.62 3728.68 1179.55 3728.68 1166.11V563.559C3728.68 550.124 3732.04 540.048 3738.75 533.33C3745.47 525.941 3755.21 522.246 3767.97 522.246C3781.41 522.246 3791.48 525.941 3798.2 533.33C3805.59 540.048 3809.29 550.124 3809.29 563.559V659.282L3798.2 645.175C3808.95 606.886 3830.11 576.658 3861.68 554.49C3893.92 531.651 3932.21 520.231 3976.55 520.231C4020.21 520.231 4058.17 530.643 4090.41 551.467C4123.32 571.62 4148.52 600.84 4165.98 639.13C4184.12 676.747 4193.19 721.754 4193.19 774.15C4193.19 825.874 4184.12 870.881 4165.98 909.17C4148.52 946.788 4123.66 976.008 4091.42 996.832C4059.17 1017.66 4020.88 1028.07 3976.55 1028.07C3932.21 1028.07 3894.26 1016.98 3862.69 994.817C3831.12 971.978 3809.62 941.75 3798.2 904.132H3810.29V1166.11C3810.29 1179.55 3806.6 1189.62 3799.21 1196.34C3791.82 1203.73 3781.74 1207.42 3768.98 1207.42ZM3959.42 962.574C3990.32 962.574 4016.85 955.184 4039.02 940.406C4061.86 925.628 4079.33 904.132 4091.42 875.919C4104.18 847.706 4110.56 813.783 4110.56 774.15C4110.56 713.021 4096.79 666.335 4069.25 634.092C4042.38 601.848 4005.77 585.726 3959.42 585.726C3929.19 585.726 3902.66 593.115 3879.82 607.894C3856.98 622 3839.18 643.16 3826.41 671.373C3814.32 698.915 3808.28 733.174 3808.28 774.15C3808.28 834.607 3822.05 881.293 3849.59 914.208C3877.13 946.452 3913.74 962.574 3959.42 962.574ZM4306.05 1207.42C4292.61 1207.42 4282.54 1203.73 4275.82 1196.34C4269.1 1189.62 4265.74 1179.55 4265.74 1166.11V563.559C4265.74 550.124 4269.1 540.048 4275.82 533.33C4282.54 525.941 4292.28 522.246 4305.04 522.246C4318.47 522.246 4328.55 525.941 4335.27 533.33C4342.66 540.048 4346.35 550.124 4346.35 563.559V659.282L4335.27 645.175C4346.02 606.886 4367.18 576.658 4398.75 554.49C4430.99 531.651 4469.28 520.231 4513.62 520.231C4557.28 520.231 4595.23 530.643 4627.48 551.467C4660.39 571.62 4685.58 600.84 4703.05 639.13C4721.18 676.747 4730.25 721.754 4730.25 774.15C4730.25 825.874 4721.18 870.881 4703.05 909.17C4685.58 946.788 4660.73 976.008 4628.48 996.832C4596.24 1017.66 4557.95 1028.07 4513.62 1028.07C4469.28 1028.07 4431.33 1016.98 4399.75 994.817C4368.18 971.978 4346.69 941.75 4335.27 904.132H4347.36V1166.11C4347.36 1179.55 4343.66 1189.62 4336.28 1196.34C4328.89 1203.73 4318.81 1207.42 4306.05 1207.42ZM4496.49 962.574C4527.39 962.574 4553.92 955.184 4576.09 940.406C4598.93 925.628 4616.39 904.132 4628.48 875.919C4641.25 847.706 4647.63 813.783 4647.63 774.15C4647.63 713.021 4633.86 666.335 4606.32 634.092C4579.45 601.848 4542.84 585.726 4496.49 585.726C4466.26 585.726 4439.72 593.115 4416.88 607.894C4394.05 622 4376.24 643.16 4363.48 671.373C4351.39 698.915 4345.34 733.174 4345.34 774.15C4345.34 834.607 4359.11 881.293 4386.66 914.208C4414.2 946.452 4450.81 962.574 4496.49 962.574ZM4951.93 1028.07C4903.57 1028.07 4866.62 1013.29 4841.1 983.734C4815.57 954.177 4802.81 911.857 4802.81 856.774V342.891C4802.81 329.456 4806.17 319.38 4812.88 312.663C4819.6 305.274 4829.68 301.579 4843.11 301.579C4855.88 301.579 4865.95 305.274 4873.34 312.663C4880.73 319.38 4884.42 329.456 4884.42 342.891V850.729C4884.42 887.003 4891.48 914.208 4905.58 932.345C4920.36 949.811 4941.86 958.543 4970.07 958.543C4976.12 958.543 4981.49 958.207 4986.19 957.536C4990.9 956.864 4995.6 956.528 5000.3 956.528C5007.69 955.856 5012.73 957.536 5015.41 961.566C5018.77 965.596 5020.45 973.657 5020.45 985.749C5020.45 997.84 5017.77 1006.91 5012.39 1012.95C5007.02 1019 4998.29 1023.03 4986.19 1025.05C4980.82 1025.72 4975.11 1026.39 4969.06 1027.06C4963.02 1027.73 4957.31 1028.07 4951.93 1028.07ZM5148.58 1207.42C5138.5 1207.42 5130.44 1204.74 5124.39 1199.36C5118.35 1193.99 5114.65 1186.6 5113.31 1177.2C5112.64 1168.46 5114.32 1159.39 5118.35 1149.99L5187.87 993.81V1029.08L4994.41 579.68C4990.38 569.604 4989.04 560.2 4990.38 551.467C4991.73 542.735 4995.76 535.681 5002.47 530.307C5009.19 524.933 5018.59 522.246 5030.69 522.246C5041.43 522.246 5049.83 524.598 5055.88 529.3C5061.92 534.002 5067.3 542.399 5072 554.49L5237.25 959.551H5210.04L5377.31 554.49C5382.68 542.399 5388.39 534.002 5394.43 529.3C5400.48 524.598 5409.21 522.246 5420.63 522.246C5431.38 522.246 5439.44 524.933 5444.82 530.307C5450.86 535.681 5454.22 542.735 5454.89 551.467C5456.24 559.528 5454.89 568.597 5450.86 578.673L5192.91 1175.18C5187.54 1187.27 5181.49 1195.67 5174.78 1200.37C5168.73 1205.07 5160 1207.42 5148.58 1207.42Z" fill="#0F62FE"/>
<path d="M317.398 1188.18C285.826 1188.18 254.926 1185.49 224.698 1180.12C194.469 1174.75 166.256 1167.02 140.058 1156.94C114.532 1146.87 91.357 1134.1 70.533 1118.65C62.472 1112.61 56.7622 1105.89 53.4035 1098.5C50.7166 1090.44 50.0448 1082.72 51.3883 1075.33C53.4035 1067.27 56.7622 1060.55 61.4644 1055.17C66.8384 1049.8 73.2199 1046.78 80.6091 1046.11C87.9983 1045.43 96.0592 1047.79 104.792 1053.16C135.02 1074.66 167.264 1090.44 201.523 1100.52C235.782 1109.92 274.407 1114.62 317.398 1114.62C377.855 1114.62 422.526 1103.54 451.411 1081.37C480.968 1058.53 495.746 1028.64 495.746 991.695C495.746 961.467 484.998 937.956 463.502 921.162C442.678 903.697 407.412 889.926 357.703 879.85L252.911 858.69C189.767 845.255 142.409 823.424 110.838 793.195C79.9373 762.295 64.4873 721.319 64.4873 670.266C64.4873 638.695 70.8688 610.145 83.6319 584.619C96.395 558.421 114.196 536.254 137.035 518.117C159.875 499.308 187.08 484.866 218.652 474.789C250.224 464.713 285.155 459.675 323.444 459.675C365.764 459.675 405.061 465.721 441.335 477.812C478.281 489.232 511.532 506.697 541.088 530.208C548.478 536.254 553.516 543.307 556.203 551.368C558.89 558.757 559.226 566.146 557.21 573.536C555.195 580.253 551.501 585.963 546.127 590.665C541.424 595.367 535.043 598.054 526.982 598.726C519.593 599.398 511.196 596.711 501.792 590.665C474.922 570.513 447.045 556.07 418.16 547.338C389.275 537.933 357.367 533.231 322.436 533.231C286.834 533.231 255.934 538.605 229.736 549.353C204.21 560.101 184.057 575.887 169.279 596.711C155.172 616.863 148.119 640.374 148.119 667.244C148.119 699.487 157.859 725.013 177.34 743.822C197.492 762.631 230.072 776.402 275.079 785.134L379.87 807.302C447.716 821.408 497.761 842.904 530.005 871.789C562.92 900.002 579.378 938.628 579.378 987.665C579.378 1017.22 573.332 1044.43 561.241 1069.28C549.149 1094.14 531.684 1115.63 508.845 1133.77C486.006 1151.23 458.464 1164.67 426.221 1174.07C393.977 1183.48 357.703 1188.18 317.398 1188.18ZM678.36 1186.16C664.925 1186.16 654.849 1182.47 648.132 1175.08C641.414 1167.69 638.056 1157.28 638.056 1143.84V723.67C638.056 710.235 641.414 700.159 648.132 693.442C654.849 686.052 664.589 682.358 677.353 682.358C690.116 682.358 699.856 686.052 706.573 693.442C713.962 700.159 717.657 710.235 717.657 723.67V812.34L706.573 798.233C719.336 760.616 739.825 731.731 768.038 711.579C796.923 690.755 831.182 680.343 870.814 680.343C912.462 680.343 946.049 690.419 971.576 710.571C997.774 730.052 1015.24 760.616 1023.97 802.264H1008.86C1020.95 764.646 1042.44 735.09 1073.34 713.594C1104.92 691.426 1141.53 680.343 1183.17 680.343C1220.12 680.343 1250.35 687.396 1273.86 701.502C1298.04 715.609 1316.18 737.105 1328.27 765.99C1340.36 794.203 1346.41 830.141 1346.41 873.804V1143.84C1346.41 1157.28 1342.71 1167.69 1335.32 1175.08C1328.61 1182.47 1318.53 1186.16 1305.1 1186.16C1292.33 1186.16 1282.26 1182.47 1274.87 1175.08C1268.15 1167.69 1264.79 1157.28 1264.79 1143.84V877.835C1264.79 832.828 1257.07 799.913 1241.62 779.089C1226.17 757.593 1199.97 746.845 1163.02 746.845C1122.72 746.845 1090.81 760.952 1067.3 789.165C1044.46 816.706 1033.04 854.324 1033.04 902.018V1143.84C1033.04 1157.28 1029.35 1167.69 1021.96 1175.08C1015.24 1182.47 1005.16 1186.16 991.728 1186.16C978.965 1186.16 968.889 1182.47 961.5 1175.08C954.782 1167.69 951.423 1157.28 951.423 1143.84V877.835C951.423 832.828 943.363 799.913 927.241 779.089C911.791 757.593 885.929 746.845 849.654 746.845C809.35 746.845 777.442 760.952 753.931 789.165C731.092 816.706 719.672 854.324 719.672 902.018V1143.84C719.672 1172.06 705.902 1186.16 678.36 1186.16ZM1592.71 1188.18C1559.13 1188.18 1528.9 1181.8 1502.03 1169.04C1475.83 1155.6 1455.01 1137.46 1439.56 1114.62C1424.11 1091.78 1416.38 1066.26 1416.38 1038.05C1416.38 1001.77 1425.45 973.222 1443.59 952.398C1462.4 931.574 1492.96 916.796 1535.28 908.063C1578.27 899.331 1636.71 894.964 1710.61 894.964H1755.95V948.368H1711.61C1657.2 948.368 1614.21 951.055 1582.64 956.429C1551.74 961.131 1529.91 969.528 1517.14 981.619C1505.05 993.71 1499.01 1010.84 1499.01 1033.01C1499.01 1060.55 1508.41 1083.05 1527.22 1100.52C1546.7 1117.98 1572.9 1126.72 1605.81 1126.72C1632.68 1126.72 1656.19 1120.33 1676.35 1107.57C1697.17 1094.81 1713.29 1077.34 1724.71 1055.17C1736.8 1033.01 1742.85 1007.48 1742.85 978.596V863.728C1742.85 822.08 1734.45 792.188 1717.66 774.051C1700.86 755.242 1673.32 745.837 1635.03 745.837C1611.52 745.837 1588.01 748.86 1564.5 754.906C1540.99 760.952 1516.14 770.692 1489.94 784.127C1480.53 788.829 1472.47 790.508 1465.76 789.165C1459.04 787.15 1453.66 783.455 1449.63 778.081C1445.6 772.707 1443.25 766.661 1442.58 759.944C1441.91 752.555 1443.25 745.502 1446.61 738.784C1450.64 732.067 1456.69 726.693 1464.75 722.662C1494.3 707.884 1523.52 697.136 1552.41 690.419C1581.29 683.701 1608.84 680.343 1635.03 680.343C1677.35 680.343 1712.28 687.396 1739.83 701.502C1767.37 714.937 1787.86 735.761 1801.29 763.975C1814.73 791.516 1821.44 827.118 1821.44 870.782V1143.84C1821.44 1157.28 1818.08 1167.69 1811.37 1175.08C1805.32 1182.47 1796.25 1186.16 1784.16 1186.16C1771.4 1186.16 1761.66 1182.47 1754.94 1175.08C1748.22 1167.69 1744.86 1157.28 1744.86 1143.84V1065.25H1753.93C1748.56 1090.78 1738.15 1112.61 1722.7 1130.75C1707.92 1148.88 1689.45 1162.99 1667.28 1173.07C1645.11 1183.14 1620.26 1188.18 1592.71 1188.18Z" fill="#0F62FE"/>
<path d="M1943.78 1186.16C1930.34 1186.16 1919.93 1182.47 1912.54 1175.08C1905.82 1167.69 1902.47 1157.28 1902.47 1143.84V723.67C1902.47 710.235 1905.82 700.159 1912.54 693.442C1919.26 686.052 1929 682.358 1941.76 682.358C1954.53 682.358 1964.27 686.052 1970.98 693.442C1978.37 700.159 1982.07 710.235 1982.07 723.67V805.287H1971.99C1982.74 765.654 2003.23 735.09 2033.46 713.594C2063.68 692.098 2100.97 680.678 2145.3 679.335C2155.38 678.663 2163.44 681.014 2169.48 686.388C2175.53 691.09 2178.89 699.487 2179.56 711.579C2180.23 722.998 2177.54 732.067 2171.5 738.784C2165.45 745.502 2156.05 749.532 2143.29 750.876L2127.16 752.891C2081.48 756.921 2046.22 771.7 2021.36 797.226C1997.18 822.08 1985.09 856.339 1985.09 900.002V1143.84C1985.09 1157.28 1981.4 1167.69 1974.01 1175.08C1967.29 1182.47 1957.21 1186.16 1943.78 1186.16Z" fill="#0F62FE"/>
<path d="M2459.88 1178.54C2421.59 1178.54 2389.35 1171.83 2363.15 1158.39C2337.63 1144.28 2318.48 1124.13 2305.72 1097.93C2292.96 1071.06 2286.57 1038.48 2286.57 1000.2V743.254H2219.06C2207.64 743.254 2198.91 740.567 2192.87 735.193C2186.82 729.147 2183.8 721.087 2183.8 711.01C2183.8 700.934 2186.82 693.209 2192.87 687.835C2198.91 682.461 2207.64 679.774 2219.06 679.774H2286.57V563.899C2286.57 550.464 2290.27 540.388 2297.66 533.67C2305.05 526.281 2315.12 522.587 2327.89 522.587C2340.65 522.587 2350.39 526.281 2357.11 533.67C2364.5 540.388 2368.19 550.464 2368.19 563.899V679.774H2495.15C2506.57 679.774 2515.3 682.461 2521.35 687.835C2527.39 693.209 2530.42 700.934 2530.42 711.01C2530.42 721.087 2527.39 729.147 2521.35 735.193C2515.3 740.567 2506.57 743.254 2495.15 743.254H2368.19V992.135C2368.19 1030.42 2376.25 1059.64 2392.37 1079.8C2408.5 1099.28 2434.69 1109.02 2470.97 1109.02C2483.73 1109.02 2494.48 1107.67 2503.21 1104.99C2512.62 1102.3 2520.34 1100.96 2526.39 1100.96C2532.43 1100.29 2537.47 1102.3 2541.5 1107C2545.53 1111.7 2547.55 1119.77 2547.55 1131.19C2547.55 1139.25 2545.87 1146.64 2542.51 1153.35C2539.82 1160.07 2534.78 1164.77 2527.39 1167.46C2519.33 1170.15 2508.58 1172.5 2495.15 1174.51C2482.39 1177.2 2470.63 1178.54 2459.88 1178.54Z" fill="#0F62FE"/>
<path d="M3048.32 221.892L2556.7 1093.1C2538.59 1125.19 2561.78 1164.89 2598.62 1164.89H2793C2810.23 1164.89 2826.14 1155.69 2834.73 1140.76L3049.63 767.127C3067.88 735.395 3113.47 734.842 3132.49 766.121L3360.85 1141.76C3369.59 1156.13 3385.18 1164.89 3401.98 1164.89H3582.51C3619.37 1164.89 3642.55 1125.17 3624.42 1093.08L3132.14 221.868C3113.71 189.25 3066.73 189.264 3048.32 221.892Z" fill="#0F62FE"/>
<path d="M3119.5 747.723L3377.01 1171.31C3377.01 1171.31 3844.08 546.73 3584.15 723.223C3324.23 899.715 3119.5 747.723 3119.5 747.723Z" fill="url(#paint0_linear_2896_130535)"/>
<defs>
<linearGradient id="paint0_linear_2896_130535" x1="3385.84" y1="715.232" x2="3385.84" y2="1171.3" gradientUnits="userSpaceOnUse">
<stop stop-color="#5F81C0"/>
<stop stop-color="#5F81C0"/>
<stop offset="0.0001" stop-color="#6182C1" stop-opacity="0.999844"/>
<stop offset="0.932292" stop-color="#D0D7E4" stop-opacity="0.990675"/>
<stop offset="0.9997" stop-color="#D1D7E4" stop-opacity="0.990623"/>
<stop offset="0.9998" stop-color="#D8DDE7" stop-opacity="0.99"/>
<stop offset="0.9999" stop-color="#5F81C0" stop-opacity="0.03125"/>
</linearGradient>
</defs>
</svg>
